<svg width="129.0125px" height="122.021240234375px" xmlns="http://www.w3.org/2000/svg" viewBox="185.49375 13.9893798828125 129.0125 122.021240234375" style="background:#051103" preserveAspectRatio="xMidYMid"><defs><linearGradient id="editing-glowing-gradient" x1="0.8146601955249185" x2="0.18533980447508147" y1="0.8885729807284856" y2="0.11142701927151444"><stop offset="0" stop-color="#67ff43"></stop><stop offset="1" stop-color="#90ffff"></stop></linearGradient><filter id="editing-glowing" x="-100%" y="-100%" width="300%" height="300%"><feGaussianBlur in="SourceGraphic" result="blur" stdDeviation="10"></feGaussianBlur><feMerge><feMergeNode in="blur"></feMergeNode><feMergeNode in="SourceGraphic"></feMergeNode></feMerge></filter></defs><g filter="url(#editing-glowing)"><g transform="translate(210.66562473773956, 102.19218826293945)"><path d="M6.53 0L-0.83 0L10.75-42.24L24.13-42.24L27.07-18.11L38.98-42.24L50.18-42.24L51.33-10.62L51.33-10.62Q51.58-4.35 54.66-2.43L54.66-2.43L54.66-2.43Q53.95-1.15 51.90 0.06L51.90 0.06L51.90 0.06Q49.86 1.28 47.14 1.28L47.14 1.28L47.14 1.28Q44.42 1.28 42.82 0.51L42.82 0.51L42.82 0.51Q41.22-0.26 40.32-1.54L40.32-1.54L40.32-1.54Q38.72-3.84 38.72-8.26L38.72-8.26L38.72-28.03L26.11 0L18.18 0L13.70-28.74L6.53 0ZM49.34 8.83L49.34 8.83L49.34 8.83Q52.61 8.45 54.66 4.22L54.66 4.22L54.66 4.22Q56.77-0.06 58.69-9.92L58.69-9.92L64.90-42.24L78.78-42.24L72.58-9.92L72.58-9.92Q70.21 2.62 66.30 7.55L66.30 7.55L66.30 7.55Q64.26 10.11 61.66 11.14L61.66 11.14L61.66 11.14Q59.07 12.16 56.26 12.16L56.26 12.16L56.26 12.16Q53.44 12.16 51.62 11.14L51.62 11.14L51.62 11.14Q49.79 10.11 49.34 8.83Z" fill="url(#editing-glowing-gradient)"></path></g></g><style>text {
  font-size: 64px;
  font-family: Arial Black;
  dominant-baseline: central;
  text-anchor: middle;
}</style></svg>